<svg id="Layer_1" data-name="Layer 1" xmlns="http://www.w3.org/2000/svg" viewBox="0 0 490 411"><defs><style>.cls-1{font-size:89.49px;font-family:MyriadPro-Regular, Myriad Pro;}</style></defs><path d="M149,12a137.77,137.77,0,0,1,97,39.28,131.62,131.62,0,0,1,0,189.05,139.33,139.33,0,0,1-193.94,0,131.62,131.62,0,0,1,0-189A137.77,137.77,0,0,1,149,12m0-12C66.71,0,0,65.28,0,145.81s66.71,145.8,149,145.8,149-65.28,149-145.8S231.29,0,149,0Z"/><path d="M96,67.78c46.32,0,84,33.3,84,74.23V275.84c0,40.93-37.68,74.23-84,74.23s-84-33.3-84-74.23V142c0-40.93,37.68-74.23,84-74.23m0-12C43,55.78,0,94.38,0,142V275.84c0,47.63,43,86.23,96,86.23s96-38.6,96-86.23V142c0-47.63-43-86.23-96-86.23Z"/><text class="cls-1" transform="translate(155.58 388.63) scale(0.98 1)">H A S N R</text></svg>